<?xml version="1.0" encoding="UTF-8" standalone="no"?>
<!-- Created with Inkscape (http://www.inkscape.org/) -->

<svg
   width="64.084717mm"
   height="49.999535mm"
   viewBox="0 0 64.084717 49.999535"
   version="1.1"
   id="svg1"
   inkscape:version="1.3.2 (091e20e, 2023-11-25, custom)"
   sodipodi:docname="uzbo_design.svg"
   inkscape:export-filename="uzbo_final.svg"
   inkscape:export-xdpi="96"
   inkscape:export-ydpi="96"
   xmlns:inkscape="http://www.inkscape.org/namespaces/inkscape"
   xmlns:sodipodi="http://sodipodi.sourceforge.net/DTD/sodipodi-0.dtd"
   xmlns="http://www.w3.org/2000/svg"
   xmlns:svg="http://www.w3.org/2000/svg">
  <sodipodi:namedview
     id="namedview1"
     pagecolor="#ffffff"
     bordercolor="#000000"
     borderopacity="0.25"
     inkscape:showpageshadow="2"
     inkscape:pageopacity="0.0"
     inkscape:pagecheckerboard="0"
     inkscape:deskcolor="#d1d1d1"
     inkscape:document-units="mm"
     inkscape:zoom="0.48945419"
     inkscape:cx="8487.0046"
     inkscape:cy="-1047.0847"
     inkscape:window-width="1920"
     inkscape:window-height="991"
     inkscape:window-x="-9"
     inkscape:window-y="-9"
     inkscape:window-maximized="1"
     inkscape:current-layer="layer4" />
  <defs
     id="defs1" />
  <g
     inkscape:groupmode="layer"
     id="layer4"
     inkscape:label="Katman 4"
     transform="translate(-2249.9998,366.71251)">
    <path
       id="path33-2-6-3-6-8-6-4"
       style="fill:#4400aa;stroke:#002b11;stroke-width:0"
       d="m 2262.6055,-366.7125 c -6.9835,0 -12.6055,5.74944 -12.6055,12.89172 v 24.21557 c 0,6.30701 4.3864,11.5216 10.2206,12.65659 l 3.0763,-6.5443 c -4.2317,-0.89833 -7.397,-4.7077 -7.397,-9.31003 v -17.88159 c 0,-5.27419 4.1515,-9.52035 9.3085,-9.52035 h 15.3453 l 3.0593,-6.50761 z m 34.5694,0 -23.5029,49.99953 h 40.4125 l -0.067,-49.99953 z m 6.4896,8.10648 a 7.5,7.5 0 0 1 7.5003,7.4998 7.5,7.5 0 0 1 -7.5003,7.50032 7.5,7.5 0 0 1 -7.4998,-7.50032 7.5,7.5 0 0 1 7.4998,-7.4998 z m -0.8977,20.67936 h 6e-4 v 0 a 6.8634167,7.7712355 0 0 1 6.8616,7.7711 6.8634167,7.7712355 0 0 1 -0.041,0.80512 h 0.01 l -0.028,7.90494 -26.9095,-0.001 3.6866,-7.98246 9.6315,0.0326 a 6.8634167,7.7712355 0 0 1 -0.075,-0.75913 6.8634167,7.7712355 0 0 1 6.8621,-7.7711 z"
       inkscape:export-filename="..\uzbo_logo_v2\uzbo_favicon.png"
       inkscape:export-xdpi="96"
       inkscape:export-ydpi="96" />
  </g>
</svg>
